# xmcd
# Copyright (C) 1995-1998 Ti Kan
#
# Track frame offsets:
#       150
#       15514
#       29739
#       47576
#       63873
#       73981
#       91287
#       105890
#       118359
#       137254
#       152098
#
# Disc length: 2267 seconds
#
# Revision: 0
# Processed by: cddbd v1.5.2PL0 Copyright (c) Steve Scherf et al.
# Submitted via: CD-Import v1.0
#
DISCID=8c08d90b
DTITLE=Entry - Life Cabaret
DYEAR=2009
DGENRE=
TTITLE0=Play Fake
TTITLE1=Life Cabaret
TTITLE2=Oxygen
TTITLE3=Sonnet
TTITLE4=Snapshot
TTITLE5=I Am Confused
TTITLE6=Kiss Me Violently
TTITLE7=Poison Inside
TTITLE8=Clowns
TTITLE9=This Game
TTITLE10=Underwater
EXTD=
EXTT0=
EXTT1=
EXTT2=
EXTT3=
EXTT4=
EXTT5=
EXTT6=
EXTT7=
EXTT8=
EXTT9=
EXTT10=
PLAYORDER=
